<svg id="maracas1" xmlns="http://www.w3.org/2000/svg" viewBox="0 0 375.99 274.99">
  <defs>
    <style>
      .cls-1 {
        fill: #c1a07e;
      }

      .cls-2 {
        fill: #998675;
      }

      .cls-3 {
        fill: #4a7732;
      }

      .cls-4 {
        fill: #d33131;
      }

      .cls-5 {
        fill: #fbae17;
      }

      .cls-6 {
        fill: #c7b299;
      }

      .cls-7 {
        fill: #fff;
        opacity: 0.4;
      }
    </style>
  </defs>
  <title>maracas1</title>
  <g id="maracas_left">
    <path id="handle" class="cls-1" d="M231.06,207.35c-2.26,18.78,9.33,84.46,58.12,103.55s48.08,45.25,33.23,60.1l-.62.62c-14.85,14.85-41,15.56-60.1-33.23S176.92,278,158.14,280.27Z" transform="translate(-55.52 -105.52)"/>
    <g id="ball">
      <g>
        <path class="cls-2" d="M228.89,172.17c-31,34.31-75.76,71-120.67,102a88,88,0,0,0,120.67-102Z" transform="translate(-55.52 -105.52)"/>
        <path class="cls-2" d="M183.61,115.16A88,88,0,0,0,59.47,219.64c23.9-16.26,47.46-34,68.61-51.68C150.05,149.56,168.84,131.66,183.61,115.16Z" transform="translate(-55.52 -105.52)"/>
      </g>
      <path class="cls-3" d="M224,158a87.64,87.64,0,0,0-22-30.26,89,89,0,0,0-7.07-5.67C162.21,159.07,113,199.15,64.38,232a87.71,87.71,0,0,0,20.68,27.28,88.68,88.68,0,0,0,10.31,7.89c24.22-16.44,48.11-34.37,69.54-52.31C188.7,195,208.75,175.61,224,158Z" transform="translate(-55.52 -105.52)"/>
      <path class="cls-4" d="M190.08,118.86c-2.12-1.32-4.27-2.57-6.47-3.7-14.77,16.5-33.56,34.4-55.53,52.8-21.15,17.71-44.71,35.42-68.61,51.68.52,1.67,1.1,3.33,1.72,5q1.42,3.76,3.18,7.4c48.62-32.86,97.84-72.95,130.53-109.94C193.33,120.93,191.71,119.88,190.08,118.86Z" transform="translate(-55.52 -105.52)"/>
      <path class="cls-4" d="M225.94,162.69c-.59-1.58-1.23-3.14-1.91-4.69-15.27,17.61-35.33,37-59.12,56.88-21.43,17.94-45.32,35.87-69.54,52.31a87.54,87.54,0,0,0,8.08,4.7q2.36,1.21,4.77,2.26c44.91-31,89.63-67.66,120.67-102A88,88,0,0,0,225.94,162.69Z" transform="translate(-55.52 -105.52)"/>
    </g>
    <circle id="decoration" class="cls-5" cx="91.48" cy="93.48" r="18"/>
    <ellipse id="decoration-2" data-name="decoration" class="cls-5" cx="204" cy="145" rx="9" ry="18" transform="translate(-100.29 66.95) rotate(-41.71)"/>
    <ellipse id="decoration-3" data-name="decoration" class="cls-5" cx="86" cy="246" rx="9" ry="18" transform="translate(-197.39 14.04) rotate(-41.71)"/>
  </g>
  <g id="maracas_right">
    <path id="handle-2" data-name="handle" class="cls-6" d="M255.76,207.35c2.26,18.78-9.33,84.46-58.12,103.55s-48.08,45.25-33.23,60.1l.62.62c14.85,14.85,41,15.56,60.1-33.23S309.9,278,328.68,280.27Z" transform="translate(-55.52 -105.52)"/>
    <g id="ball-2" data-name="ball">
      <g>
        <path class="cls-2" d="M258.14,173.17c31,34.31,75.76,71,120.67,102a88,88,0,0,1-120.67-102Z" transform="translate(-55.52 -105.52)"/>
        <path class="cls-2" d="M303.42,116.16A88,88,0,0,1,427.55,220.64c-23.9-16.26-47.46-34-68.61-51.68C337,150.56,318.19,132.66,303.42,116.16Z" transform="translate(-55.52 -105.52)"/>
      </g>
      <path class="cls-3" d="M263,159a87.64,87.64,0,0,1,22-30.26,89,89,0,0,1,7.07-5.67c32.69,37,81.91,77.08,130.53,109.94A87.71,87.71,0,0,1,402,260.29a88.68,88.68,0,0,1-10.31,7.89c-24.22-16.44-48.11-34.37-69.54-52.31C298.33,196,278.27,176.61,263,159Z" transform="translate(-55.52 -105.52)"/>
      <path class="cls-4" d="M297,119.86c2.12-1.32,4.27-2.57,6.47-3.7,14.77,16.5,33.56,34.4,55.53,52.8,21.15,17.71,44.71,35.42,68.61,51.68-.52,1.67-1.1,3.33-1.72,5q-1.42,3.76-3.18,7.4C374,200.15,324.81,160.07,292.12,123.07,293.7,121.93,295.32,120.88,297,119.86Z" transform="translate(-55.52 -105.52)"/>
      <path class="cls-4" d="M261.09,163.69c.59-1.58,1.23-3.14,1.91-4.69,15.27,17.61,35.33,37,59.12,56.88,21.43,17.94,45.32,35.87,69.54,52.31a87.54,87.54,0,0,1-8.08,4.7q-2.36,1.21-4.77,2.26c-44.91-31-89.63-67.66-120.67-102A88,88,0,0,1,261.09,163.69Z" transform="translate(-55.52 -105.52)"/>
    </g>
    <circle id="decoration-4" data-name="decoration" class="cls-5" cx="284.51" cy="94.48" r="18"/>
    <ellipse id="decoration-5" data-name="decoration" class="cls-5" cx="283.03" cy="146" rx="18" ry="9" transform="translate(-69.79 154.65) rotate(-48.29)"/>
    <ellipse id="decoration-6" data-name="decoration" class="cls-5" cx="401.03" cy="247" rx="18" ry="9" transform="translate(-105.7 276.55) rotate(-48.29)"/>
  </g>
  <g id="details">
    <path id="details-2" data-name="details" class="cls-7" d="M121,137c-9.15-36.61,64-24,84,9s19.13,55.68,7.56,81.84C211.44,193.16,201,165,181,151S124,149,121,137Z" transform="translate(-55.52 -105.52)"/>
    <path id="details-3" data-name="details" class="cls-7" d="M322,136c-9.15-36.61,64-24,84,9s19.13,55.68,7.56,81.84C412.44,192.16,402,164,382,150S325,148,322,136Z" transform="translate(-55.52 -105.52)"/>
  </g>
</svg>
