<svg id="pyramid" xmlns="http://www.w3.org/2000/svg" viewBox="0 0 287 293">
  <defs>
    <style>
      .cls-1 {
        fill: #f7931e;
        stroke: #f15a24;
      }

      .cls-1, .cls-2, .cls-3 {
        stroke-miterlimit: 10;
        stroke-width: 9px;
      }

      .cls-2 {
        fill: #603813;
      }

      .cls-2, .cls-3 {
        stroke: #754c24;
      }

      .cls-3 {
        fill: #c7b299;
      }

      .cls-4 {
        fill: #fff;
        opacity: 0.4;
      }
    </style>
  </defs>
  <title>mayan_pyramid</title>
  <circle id="sun" class="cls-1" cx="146" cy="127" r="122.5"/>
  <g id="mayan_pyramid">
    <path class="cls-2" d="M319,332.5h57.5a12,12,0,0,1,12,12v28a12,12,0,0,1-12,12h-254a12,12,0,0,1-12-12v-28a12,12,0,0,1,12-12h69.25" transform="translate(-106 -96)"/>
    <path class="cls-2" d="M195.75,332.5H142.5a12,12,0,0,1-12-12v-28a12,12,0,0,1,12-12h67.67" transform="translate(-106 -96)"/>
    <path class="cls-2" d="M297,280.5h61.5a12,12,0,0,1,12,12v28a12,12,0,0,1-12,12H314.25" transform="translate(-106 -96)"/>
    <path class="cls-2" d="M209.5,280.5h-45a12,12,0,0,1-12-12v-28a12,12,0,0,1,12-12h177a12,12,0,0,1,12,12v28a12,12,0,0,1-12,12H298.33" transform="translate(-106 -96)"/>
    <rect class="cls-2" x="68.5" y="80.5" width="160" height="52" rx="12" ry="12"/>
    <polygon class="cls-3" points="116.52 132.5 73.91 288.5 226.75 288.5 176.18 132.5 116.52 132.5"/>
  </g>
  <path id="detail" class="cls-4" d="M162.5,165.5c11-26,55-50,91-50s69,19,82,42c-33-20-49-31-87-28s-58,18-72,27Z" transform="translate(-106 -96)"/>
</svg>
