<svg id="poncho" xmlns="http://www.w3.org/2000/svg" viewBox="0 0 388.23 336">
  <defs>
    <style>
      .cls-1 {
        fill: none;
        stroke: #1f7c18;
        stroke-miterlimit: 10;
        stroke-width: 3px;
      }

      .cls-2 {
        fill: #7c4100;
      }

      .cls-3 {
        fill: red;
      }

      .cls-4 {
        fill: #e5e523;
      }

      .cls-5 {
        opacity: 0.4;
      }

      .cls-6 {
        fill: #1f7c18;
      }
    </style>
  </defs>
  <title>poncho1</title>
  <g id="detail">
    <line id="detail-2" data-name="detail" class="cls-1" x1="27" y1="162.5" x2="27" y2="126.5"/>
    <line id="detail-3" data-name="detail" class="cls-1" x1="78" y1="227" x2="78" y2="191"/>
    <line id="detail-4" data-name="detail" class="cls-1" x1="125" y1="284.61" x2="125" y2="248.61"/>
    <line id="detail-5" data-name="detail" class="cls-1" x1="262.5" y1="284.61" x2="262.5" y2="248.61"/>
    <line id="detail-6" data-name="detail" class="cls-1" x1="311" y1="222" x2="311" y2="186"/>
    <line id="detail-7" data-name="detail" class="cls-1" x1="358" y1="162.5" x2="358" y2="126.5"/>
  </g>
  <path id="poncho-2" data-name="poncho" class="cls-2" d="M317.5,102.5h-1c-7.16,16.72-34.19,29.17-66.46,29.17s-59.29-12.44-66.46-29.17h0L70,216,249.5,438.5h2L431,216Z" transform="translate(-57.5 -102.5)"/>
  <polygon id="stripe" class="cls-3" points="192.78 184.73 88.43 37.57 99.91 26.09 192.22 156.27 280.55 20.55 292.12 32.12 192.78 184.73"/>
  <polygon id="stripe-2" data-name="stripe" class="cls-4" points="192.48 294.01 40.11 85.89 51.56 74.45 192.52 266.99 334.45 74.45 345.89 85.89 192.48 294.01"/>
  <path id="shadow" class="cls-5" d="M250,438.5h2L431.5,216,318,102.5h-1c-7.16,16.72-34.19,29.17-66.46,29.17" transform="translate(-57.5 -102.5)"/>
  <g id="decoration">
    <circle class="cls-6" cx="17.61" cy="168" r="17.61"/>
    <circle class="cls-6" cx="64.61" cy="231" r="17.61"/>
    <circle class="cls-6" cx="113.61" cy="294.01" r="17.61"/>
    <circle class="cls-6" cx="370.61" cy="167.99" r="17.61"/>
    <circle class="cls-6" cx="323.61" cy="230.99" r="17.61"/>
    <circle class="cls-6" cx="274.61" cy="294.01" r="17.61"/>
  </g>
</svg>
