<svg id="Layer_1" data-name="Layer 1" xmlns="http://www.w3.org/2000/svg" viewBox="0 0 305.59 245.5">
  <defs>
    <style>
      .cls-1 {
        fill: #cf9015;
      }

      .cls-2 {
        fill: #8cc63f;
      }

      .cls-3 {
        fill: #ed1c24;
      }

      .cls-4 {
        fill: red;
      }

      .cls-5 {
        fill: #fbae17;
      }

      .cls-6 {
        fill: #fbb03b;
      }

      .cls-7 {
        opacity: 0.2;
      }

      .cls-8 {
        fill: #f2f2f2;
      }
    </style>
  </defs>
  <title>taco1</title>
  <g>
    <path class="cls-1" d="M208.5,173.5c1.16-.62,3-1.56,5.42-2.66-19.11,4.05-32.18,10.37-36.42,12.66-13,7-95,81-36,196l27.63-16.87C116.79,251.56,195.76,180.36,208.5,173.5Z" transform="translate(-117.88 -136.49)"/>
    <path class="cls-1" d="M209.76,175.66c1.78-.94,3.59-1.81,5.42-2.66,2.68-1.24.71-5.14-1.93-4.57-13.85,3-29.83,7.05-41.37,15.87-8.15,6.23-15.22,14-21.52,22-21.12,27-33.06,60.62-32.46,95,.49,27.84,8.9,54.74,21.44,79.42a2.53,2.53,0,0,0,3.42.9l27.63-16.87a2.57,2.57,0,0,0,.9-3.42c-16-34.25-22.51-72.63-12.48-109.55a148.57,148.57,0,0,1,35.58-63c4.53-4.76,9.54-10,15.37-13.17,2.82-1.55.3-5.87-2.52-4.32-5.25,2.89-9.86,7.38-14.06,11.57a152.19,152.19,0,0,0-20.52,25.69,149.25,149.25,0,0,0-23.57,87.58c1.18,23.59,7.94,46.38,17.89,67.7l.9-3.42-27.63,16.87,3.42.9c-19.83-39-27.54-83.54-13-125.63,8.18-23.71,22.82-46.59,42.23-62.73,11.43-9.5,27.58-13.54,41.71-16.62l-1.93-4.57c-1.83.85-3.64,1.72-5.42,2.66C204.39,172.84,206.91,177.16,209.76,175.66Z" transform="translate(-117.88 -136.49)"/>
  </g>
  <g id="toppings">
    <path id="lettuce" class="cls-2" d="M178,224c6-36-2-45-17-30s-18-1-29,7-17,45-6,40,12,9,6,18-6.19,41,5.41,29S160,269,175,278,178,224,178,224Z" transform="translate(-117.88 -136.49)"/>
    <path id="lettuce-2" data-name="lettuce" class="cls-2" d="M269.3,194.22c36.37,3.08,44.69-5.61,28.53-19.36s-.45-18-9.31-28.34-46.22-13.32-40.35-2.76-8,12.69-17.46,7.43-41.35-2.87-28.47,7.72,20.75,21,13,36.67S269.3,194.22,269.3,194.22Z" transform="translate(-117.88 -136.49)"/>
    <path id="tomato" class="cls-3" d="M216.89,179.89c-10.26-35-21.37-39.65-28.36-19.62s-16.64,6.93-23.07,18.92,4.27,47.91,12,38.63,14.72,2.88,13.23,13.6,12.26,39.6,17.48,23.76,12.08-26.93,29.5-25.35S216.89,179.89,216.89,179.89Z" transform="translate(-117.88 -136.49)"/>
    <path id="tomato-2" data-name="tomato" class="cls-4" d="M276.93,182.65c-24.77,26.8-23,38.71-2.26,34.41s14.5,10.72,28.08,10.07,38.91-28.29,27-30.14-5.09-14.11,4.86-18.34,27.67-30.87,11.39-27.2-29.31,3.48-36.91-12.28S276.93,182.65,276.93,182.65Z" transform="translate(-117.88 -136.49)"/>
  </g>
  <g>
    <path class="cls-5" d="M174.5,372.5l244-149c-99-99-195-54-208-47S115.5,257.5,174.5,372.5Z" transform="translate(-117.88 -136.49)"/>
    <path class="cls-6" d="M177,376.82l83-50.65,131-80,30-18.33a5.06,5.06,0,0,0,1-7.85c-30.93-30.72-69.2-55.17-112.77-62.35a170.27,170.27,0,0,0-80.9,6.06c-12.89,4.27-23.58,9.49-33.39,18.94a155.64,155.64,0,0,0-39.6,64.13C141.56,289.91,150,335.32,170.18,375c2.92,5.74,11.55.68,8.63-5-17.55-34.54-25.89-73.79-16.28-111.92A145.88,145.88,0,0,1,198,193.79c4.55-4.8,9.4-9.51,14-12.37a71.92,71.92,0,0,1,13.34-6.1,160.11,160.11,0,0,1,70.29-9.44c46.22,4.08,87,29,119.34,61.15l1-7.85-83,50.65-131,80-30,18.33C166.49,371.53,171.51,380.18,177,376.82Z" transform="translate(-117.88 -136.49)"/>
  </g>
  <g class="cls-7">
    <path class="cls-8" d="M202,325.51a99.54,99.54,0,0,1-2.62-11c-.19-1.06-.34-2.12-.51-3.17.7,4.19.07.48,0-.34q-.36-3.33-.55-6.68c-.23-4.22-.26-8.46-.11-12.68q.13-3.55.43-7.09.1-1.19.22-2.38c.07-.75.75-6,.18-2A152,152,0,0,1,205.37,253q1-2.88,2.07-5.72c.21-.53,1.77-4.3.32-.9q.71-1.66,1.47-3.31a117.43,117.43,0,0,1,6.46-12.1q1.69-2.76,3.55-5.41c.67-1,1.37-1.89,2.06-2.83-1.87,2.55-.65.83-.2.3a100.75,100.75,0,0,1,9.48-9.93c.85-.75,1.73-1.47,2.59-2.2,2.89-2.46-2.61,1.69.56-.4,1.57-1,3.1-2.13,4.72-3.1q2.91-1.75,6-3.22c.69-.33,1.38-.64,2.07-.94-3.68,1.61,1.05-.3,1.78-.54,11.92-4,21-4.82,33.88-3.91q2,.14,3.92.35c.58.06,3.89.53,1.45.16q4.6.7,9.15,1.74a151.87,151.87,0,0,1,16.81,4.9c10,3.54,19.43,8.06,30.49,14.14,8.42,4.63,16.59,9.69,25,14.41a15.28,15.28,0,0,0,20.52-5.38c4.05-6.93,1.7-16.54-5.38-20.52-18.76-10.56-36.88-21.61-57-29.49-25.69-10.05-54.24-13.93-81.24-6.94-42.68,11.06-67.43,53.09-74.81,94.11-4,22.13-4.45,45.53,2,67.26A15.29,15.29,0,0,0,191.49,344c7.71-2.12,12.8-10.66,10.48-18.45Z" transform="translate(-117.88 -136.49)"/>
  </g>
</svg>
