<svg id="cactus" xmlns="http://www.w3.org/2000/svg" viewBox="0 0 268.57 365">
  <defs>
    <style>
      .cls-1 {
        fill: #999;
      }

      .cls-2 {
        fill: #fff;
        opacity: 0.4;
      }
    </style>
  </defs>
  <title>cactus1</title>
  <path id="cactus-2" data-name="cactus" class="cls-1" d="M382,163.5c-8-30-36-38-49-25s-2,49,8,64c9.55,14.33,3.59,53.29-72.8,44.55.42-1.67.85-3.35,1.3-5,24-89.86,21-158.78-33.75-159C181,83.22,178,152.14,202,242a336.07,336.07,0,0,1,9.53,51.27C139.39,300,145.23,277,152,262.5c7-15,16-53.74-13-55-23-1-27,41-16,82,9.27,34.54,71,31.47,90.28,29.64,1.6,52.31-8.6,94.39-9.28,128.86h63.5c-.88-44.1-17.32-100.65-4.71-175.14C315.42,274.42,405,274.83,382,163.5Z" transform="translate(-117.13 -83)"/>
  <path id="detail" class="cls-2" d="M241.1,93.71c-11.54-3.86-24.13-1.79-32.29,7.71-10.62,12.37-12.44,30.51-12.34,46.14.28,45.13,18.3,88.22,22.4,132.82a90.91,90.91,0,0,1,.45,10.81c0,1.25-.32,2.73,0,.62a3.87,3.87,0,0,1-.12.58c-2.38,7.37,9.2,10.52,11.57,3.19,1-3,.62-6.77.47-9.82-.62-12.9-3-25.79-5.33-38.46-4.88-26-12.63-51.57-15.93-77.82-2.13-17-3.81-37.16,3.49-53.22,5.14-11.32,13.42-14.67,24.43-11,7.34,2.45,10.49-9.13,3.19-11.57Z" transform="translate(-117.13 -83)"/>
</svg>
