<svg id="chili_pepper" xmlns="http://www.w3.org/2000/svg" viewBox="0 0 376.17 161.85">
  <defs>
    <style>
      .cls-1 {
        fill: gray;
      }

      .cls-2 {
        fill: #fff;
        opacity: 0.4;
      }
    </style>
  </defs>
  <title>chili_pepper1</title>
  <path id="pepper" class="cls-1" d="M158.5,186.5c-59-7-95,82-46,115s352,65,320-89c-27,85-172,37-198,11S158.5,186.5,158.5,186.5Z" transform="translate(-58.69 -167)"/>
  <path id="pepperStem" class="cls-1" d="M100,221c0-4.51-4.47,5.78-7.09,13.66C59.63,219.34,70,191.83,70,186c0-6,13-14,13-14l-17-5c-15,34-7,63.93,24.55,77C89.28,251,89,257.7,91,252c1-2,4.51-5.2,6.88-13.14A62.47,62.47,0,0,0,100,221Z" transform="translate(-58.69 -167)"/>
  <path id="detail" class="cls-2" d="M122,214.56a17.41,17.41,0,0,1,3.7-4.6,30.33,30.33,0,0,1,4.61-3.43,43.48,43.48,0,0,1,10.15-4.46,60.65,60.65,0,0,1,21.23-2.27,73.94,73.94,0,0,1,10.42,1.43c3.41.74,6.76,1.71,10.07,2.76a146.61,146.61,0,0,1,19.21,7.69,159.2,159.2,0,0,1,33.93,22.58c1.28,1.1,2.54,2.23,3.78,3.36l3.33,3.05q3.06,2.67,6.42,5.14a99.2,99.2,0,0,0,14.61,8.63A156.45,156.45,0,0,0,296.89,266c2.93.67,5.88,1.29,8.85,1.83s6,1.07,9,1.5,6,.81,9.06,1.12,6.07.59,9.12.8a217.08,217.08,0,0,0,36.74-.53,124.8,124.8,0,0,0,18.09-3.14c5.88-1.54,11.77-3.56,16.52-7.3l1.51,1.44a28.32,28.32,0,0,1-3.43,3.63,43.32,43.32,0,0,1-3.95,3,62.52,62.52,0,0,1-8.59,4.85,115.84,115.84,0,0,1-18.42,6.63,189.19,189.19,0,0,1-38.53,6c-6.51.38-13.05.45-19.61.19a190.19,190.19,0,0,1-19.67-1.67,160.94,160.94,0,0,1-38.92-10,121.56,121.56,0,0,1-18.54-9.5,95.87,95.87,0,0,1-8.7-6.22l-3.81-3.16c-1.14-.93-2.28-1.86-3.44-2.75a150.62,150.62,0,0,0-29.62-18.16,121.19,121.19,0,0,0-16-6.14c-2.71-.83-5.45-1.52-8.18-2.2l-8.17-2.05c-5.45-1.34-10.91-2.69-16.5-4-2.8-.61-5.64-1.26-8.55-1.76a54.15,54.15,0,0,0-9.14-1Z" transform="translate(-58.69 -167)"/>
</svg>
