<svg id="file_icon" xmlns="http://www.w3.org/2000/svg" viewBox="0 0 224 224">
  <defs>
    <style>
      .cls-1 {
        fill: #fff;
      }

      .cls-1, .cls-2 {
        stroke: #ccc;
        stroke-miterlimit: 10;
        stroke-width: 8px;
      }

      .cls-2 {
        fill: none;
      }
    </style>
  </defs>
  <title>file_icon</title>
  <g id="circle">
    <path class="cls-1" d="M142,250a108,108,0,0,1,216,0" transform="translate(-138 -138)"/>
    <path class="cls-1" d="M250,358A108,108,0,0,1,142,250" transform="translate(-138 -138)"/>
    <path class="cls-1" d="M358,250A108,108,0,0,1,250,358" transform="translate(-138 -138)"/>
  </g>
  <g id="ovals">
    <path class="cls-1" d="M303,204.14c0,7.57-4.61,13.86-10.29,13.86H205.29c-5.68,0-10.29-6.28-10.29-13.86v-3.43c0-7.57,4.61-13.71,10.29-13.71h87.43c5.68,0,10.29,6.14,10.29,13.71Z" transform="translate(-138 -138)"/>
    <path class="cls-1" d="M303,251.71c0,7.57-4.61,13.29-10.29,13.29H205.29c-5.68,0-10.29-5.71-10.29-13.29v-3.43c0-7.57,4.61-13.29,10.29-13.29h87.43c5.68,0,10.29,5.71,10.29,13.29Z" transform="translate(-138 -138)"/>
    <path class="cls-1" d="M303,299.29c0,7.57-4.61,13.71-10.29,13.71H205.29c-5.68,0-10.29-6.14-10.29-13.71v-3.43c0-7.57,4.61-13.86,10.29-13.86h87.43c5.68,0,10.29,6.28,10.29,13.86Z" transform="translate(-138 -138)"/>
  </g>
  <g id="details">
    <line class="cls-2" x1="96" y1="64" x2="150" y2="64"/>
    <line class="cls-2" x1="96" y1="112" x2="150" y2="112"/>
    <line class="cls-2" x1="96" y1="160" x2="150" y2="160"/>
  </g>
</svg>
