<svg id="peppers" xmlns="http://www.w3.org/2000/svg" viewBox="0 0 429.02 267.06">
  <defs>
    <style>
      .cls-1 {
        fill: gray;
      }

      .cls-2 {
        fill: #fff;
        opacity: 0.4;
      }
    </style>
  </defs>
  <title>peppers2</title>
  <path id="pepper" class="cls-1" d="M327.53,208.18c-25.83-32.25-87.08-5.69-78.89,34.56s142.77,203.9,202,112c-54.84,29-103.3-65.55-103.5-91.12S327.53,208.18,327.53,208.18Z" transform="translate(-21.64 -120.08)"/>
  <path id="stem" class="cls-1" d="M281.71,196.75c2.2-2.23-5,.68-10.18,3.31-9-23.82,9.54-32.4,12.38-35.29s13.27-.6,13.27-.6l-6-10.77c-24,9.52-34.66,28.26-25.37,50.12-4.07,2.87-7.48,6-3.7,4.2,1.47-.5,4.77-.38,9.82-3.16A43.44,43.44,0,0,0,281.71,196.75Z" transform="translate(-21.64 -120.08)"/>
  <path id="pepper-2" data-name="pepper" class="cls-1" d="M165.27,184c30.13-37.62,101.58-6.64,92,40.32S90.75,462.16,21.64,354.91c64,33.79,120.5-76.47,120.74-106.29S165.27,184,165.27,184Z" transform="translate(-21.64 -120.08)"/>
  <path id="stem-2" data-name="stem" class="cls-1" d="M218.73,170.65c-2.56-2.61,5.87.79,11.87,3.86,10.52-27.79-11.13-37.8-14.44-41.17s-15.48-.7-15.48-.7l7-12.56c28,11.11,40.43,33,29.59,58.47,4.75,3.35,8.73,7,4.31,4.9-1.72-.59-5.57-.44-11.45-3.69A50.67,50.67,0,0,1,218.73,170.65Z" transform="translate(-21.64 -120.08)"/>
  <g id="detail">
    <path id="detail-2" data-name="detail" class="cls-2" d="M295.73,204.42a16,16,0,0,1,7.83.33,30.35,30.35,0,0,1,7,2.87,42.8,42.8,0,0,1,11.35,9.27,53.15,53.15,0,0,1,4.4,5.75c1.3,2,2.5,4.1,3.6,6.22a101.8,101.8,0,0,1,5.72,13.06,110,110,0,0,1,5.81,27.52c.12,1.16.15,2.32.23,3.49l.19,3.15q.23,2.86.71,5.76a69.87,69.87,0,0,0,3.11,11.53,109,109,0,0,0,11.12,22.12c2.28,3.52,4.71,7,7.3,10.35s5.32,6.62,8.16,9.8a149.74,149.74,0,0,0,18.65,17.56,80.83,80.83,0,0,0,10.6,7.19c3.7,2.06,7.64,3.91,11.84,4.32l0,1.3a19.63,19.63,0,0,1-3.45.09,29.94,29.94,0,0,1-3.4-.46,42.62,42.62,0,0,1-6.57-1.84A85.48,85.48,0,0,1,387.7,358a132.19,132.19,0,0,1-21.84-15.91q-5.07-4.5-9.72-9.48a133.28,133.28,0,0,1-8.85-10.42,111.81,111.81,0,0,1-14.22-23.86,83.8,83.8,0,0,1-4.48-13.63,66.56,66.56,0,0,1-1.25-7.24L327,274c-.12-1-.19-2.05-.35-3.06a105.1,105.1,0,0,0-5.83-23.66,86,86,0,0,0-5-11c-1.92-3.5-4-6.84-6.14-10.19s-4.25-6.66-6.52-10c-1.15-1.65-2.31-3.32-3.58-4.92a35.74,35.74,0,0,0-4.25-4.7Z" transform="translate(-21.64 -120.08)"/>
    <path id="detail-3" data-name="detail" class="cls-2" d="M202.77,181.92a36.44,36.44,0,0,0-5.26,5.12c-1.58,1.8-3,3.69-4.46,5.57-2.83,3.79-5.46,7.66-8,11.58-1.27,2-2.52,3.94-3.75,5.94s-2.45,4-3.57,6.09a100.72,100.72,0,0,0-5.86,13,122.82,122.82,0,0,0-6.79,27.93c-.16,1.2-.28,2.4-.41,3.61l-.38,4a77.5,77.5,0,0,1-1.41,8.32,96.7,96.7,0,0,1-5.11,15.73,130.27,130.27,0,0,1-16.33,27.69,157,157,0,0,1-10.19,12.15q-5.35,5.82-11.21,11.09a155.29,155.29,0,0,1-25.22,18.7,99.19,99.19,0,0,1-14.17,6.85,49.85,49.85,0,0,1-7.6,2.23,34.68,34.68,0,0,1-3.94.58,22.82,22.82,0,0,1-4,0l0-1.3c4.94-.4,9.58-2.5,13.95-4.86a94.55,94.55,0,0,0,12.5-8.27,172.8,172.8,0,0,0,22-20.35c1.68-1.84,3.34-3.71,4.94-5.62s3.19-3.82,4.72-5.78c3.06-3.92,5.94-8,8.64-12.08a127.53,127.53,0,0,0,13.23-25.95,82.79,82.79,0,0,0,3.74-13.62q.59-3.43.87-6.85l.22-3.7c.08-1.34.17-2.69.29-4A127.71,127.71,0,0,1,157,223.76a116.57,116.57,0,0,1,6.61-15.06c1.29-2.43,2.65-4.84,4.16-7.16a64.34,64.34,0,0,1,5-6.65A51.92,51.92,0,0,1,185.68,184a36.31,36.31,0,0,1,7.89-3.52,24.54,24.54,0,0,1,4.33-.9,14,14,0,0,1,4.5.16Z" transform="translate(-21.64 -120.08)"/>
  </g>
</svg>
