<svg id="poncho" xmlns="http://www.w3.org/2000/svg" viewBox="0 0 388.23 336">
  <defs>
    <style>
      .cls-1 {
        fill: gray;
      }
    </style>
  </defs>
  <title>poncho1</title>
  <g id="detail">
    <g>
      <line id="detail-2" data-name="detail" class="cls-1" x1="27" y1="162.5" x2="27" y2="126.5"/>
      <rect class="cls-1" x="25.5" y="126.5" width="3" height="36"/>
    </g>
    <g>
      <line id="detail-3" data-name="detail" class="cls-1" x1="78" y1="227" x2="78" y2="191"/>
      <rect class="cls-1" x="76.5" y="191" width="3" height="36"/>
    </g>
    <g>
      <line id="detail-4" data-name="detail" class="cls-1" x1="125" y1="284.61" x2="125" y2="248.61"/>
      <rect class="cls-1" x="123.5" y="248.61" width="3" height="36"/>
    </g>
    <g>
      <line id="detail-5" data-name="detail" class="cls-1" x1="262.5" y1="284.61" x2="262.5" y2="248.61"/>
      <rect class="cls-1" x="261" y="248.61" width="3" height="36"/>
    </g>
    <g>
      <line id="detail-6" data-name="detail" class="cls-1" x1="311" y1="222" x2="311" y2="186"/>
      <rect class="cls-1" x="309.5" y="186" width="3" height="36"/>
    </g>
    <g>
      <line id="detail-7" data-name="detail" class="cls-1" x1="358" y1="162.5" x2="358" y2="126.5"/>
      <rect class="cls-1" x="356.5" y="126.5" width="3" height="36"/>
    </g>
  </g>
  <g>
    <path class="cls-1" d="M338.05,123.05,317.5,102.5h-1c-7.16,16.72-34.19,29.17-66.46,29.17s-59.29-12.44-66.46-29.17h0l-26.1,26.1,92.31,130.18Z" transform="translate(-57.5 -102.5)"/>
    <polygon class="cls-1" points="192.52 266.99 334.45 74.45 292.12 32.12 192.78 184.73 88.43 37.57 40.11 85.89 51.56 74.45 192.52 266.99"/>
    <polygon class="cls-1" points="345.89 85.89 192.48 294.01 40.11 85.89 12.5 113.5 192 336 194 336 373.5 113.5 345.89 85.89"/>
  </g>
  <g id="decoration">
    <circle class="cls-1" cx="17.61" cy="168" r="17.61"/>
    <circle class="cls-1" cx="64.61" cy="231" r="17.61"/>
    <circle class="cls-1" cx="113.61" cy="294.01" r="17.61"/>
    <circle class="cls-1" cx="370.61" cy="167.99" r="17.61"/>
    <circle class="cls-1" cx="323.61" cy="230.99" r="17.61"/>
    <circle class="cls-1" cx="274.61" cy="294.01" r="17.61"/>
  </g>
</svg>
