<svg id="sombrero1" xmlns="http://www.w3.org/2000/svg" viewBox="0 0 427 171.53">
  <defs>
    <style>
      .cls-1 {
        fill: gray;
      }

      .cls-2, .cls-4 {
        opacity: 0.4;
      }

      .cls-3, .cls-4 {
        fill: #fff;
      }
    </style>
  </defs>
  <title>sombrero1</title>
  <path id="head" class="cls-1" d="M250,119c-38,0-63,35-63,99H311c0-64-23-99-61-99" transform="translate(-36.5 -119)"/>
  <path id="brim" class="cls-1" d="M463.5,217.5H36.5c.12,73.69,77.33,73,213.75,73s213.13.86,213.25-72.83Z" transform="translate(-36.5 -119)"/>
  <g id="stripe">
    <path id="stripe-2" data-name="stripe" class="cls-1" d="M46.21,254a50.35,50.35,0,0,0,6.19,7.5H447.72a50.08,50.08,0,0,0,6.13-7.5Z" transform="translate(-36.5 -119)"/>
  </g>
  <g id="detail" class="cls-2">
    <polygon id="detail-2" data-name="detail" class="cls-3" points="7.71 125.67 26.5 125.67 17.11 111.67 7.71 125.67"/>
    <polygon id="detail-3" data-name="detail" class="cls-3" points="33.33 125.67 52.12 125.67 42.73 111.67 33.33 125.67"/>
    <polygon id="detail-4" data-name="detail" class="cls-3" points="59.48 125.67 78.27 125.67 68.88 111.67 59.48 125.67"/>
    <polygon id="detail-5" data-name="detail" class="cls-3" points="86.44 125.67 105.23 125.67 95.84 111.67 86.44 125.67"/>
    <polygon id="detail-6" data-name="detail" class="cls-3" points="112.07 125.67 130.85 125.67 121.46 111.67 112.07 125.67"/>
    <polygon id="detail-7" data-name="detail" class="cls-3" points="138.22 125.67 157 125.67 147.61 111.67 138.22 125.67"/>
    <polygon id="detail-8" data-name="detail" class="cls-3" points="165.71 125.67 184.5 125.67 175.11 111.67 165.71 125.67"/>
    <polygon id="detail-9" data-name="detail" class="cls-3" points="191.33 125.67 210.12 125.67 200.73 111.67 191.33 125.67"/>
    <polygon id="detail-10" data-name="detail" class="cls-3" points="217.49 125.67 236.27 125.67 226.88 111.67 217.49 125.67"/>
    <polygon id="detail-11" data-name="detail" class="cls-3" points="244.44 125.67 263.23 125.67 253.84 111.67 244.44 125.67"/>
    <polygon id="detail-12" data-name="detail" class="cls-3" points="270.07 125.67 288.85 125.67 279.46 111.67 270.07 125.67"/>
    <polygon id="detail-13" data-name="detail" class="cls-3" points="296.22 125.67 315 125.67 305.61 111.67 296.22 125.67"/>
    <polygon id="detail-14" data-name="detail" class="cls-3" points="322.24 125.67 341.02 125.67 331.63 111.67 322.24 125.67"/>
    <polygon id="detail-15" data-name="detail" class="cls-3" points="349.19 125.67 367.98 125.67 358.59 111.67 349.19 125.67"/>
    <polygon id="detail-16" data-name="detail" class="cls-3" points="374.82 125.67 393.6 125.67 384.21 111.67 374.82 125.67"/>
    <polygon id="detail-17" data-name="detail" class="cls-3" points="400.97 125.67 419.75 125.67 410.36 111.67 400.97 125.67"/>
  </g>
  <path id="detail-18" data-name="detail" class="cls-4" d="M311,288.9c0,2-27.76,1.6-62,1.6s-62,.06-62-1.92,27.76-5.25,62-5.25S311,286.92,311,288.9Z" transform="translate(-36.5 -119)"/>
</svg>
