<svg id="taco" xmlns="http://www.w3.org/2000/svg" viewBox="0 0 308.09 247.99">
  <defs>
    <style>
      .cls-1 {
        fill: gray;
      }

      .cls-2 {
        fill: #fff;
        opacity: 0.4;
      }
    </style>
  </defs>
  <title>taco1</title>
  <g id="back_shell">
    <path class="cls-1" d="M208.5,173.5c1.16-.62,3-1.56,5.42-2.66-19.11,4.05-32.18,10.37-36.42,12.66-13,7-95,81-36,196l27.63-16.87C116.79,251.56,195.76,180.36,208.5,173.5Z" transform="translate(-115.38 -136.49)"/>
    <path class="cls-1" d="M211,177.82c1.78-.94,3.59-1.81,5.42-2.66,5.36-2.49,1.42-10.29-3.85-9.14-14.07,3.07-30.24,7.21-42,16.12a123.08,123.08,0,0,0-22,22.4c-21.55,27.55-33.81,61.69-33.19,96.79.49,28.29,9,55.6,21.78,80.68a5.05,5.05,0,0,0,6.84,1.79l27.63-16.87a5.14,5.14,0,0,0,1.79-6.84c-15.68-33.63-22.08-71.38-12.23-107.62a145.92,145.92,0,0,1,34.94-61.89,112.58,112.58,0,0,1,9.36-8.86,29.1,29.1,0,0,1,5.5-3.92c5.64-3.1.6-11.74-5-8.63-5.43,3-10.22,7.62-14.57,12a155.25,155.25,0,0,0-20.91,26.19,151.58,151.58,0,0,0-23.91,88.84c1.21,24.06,8.09,47.22,18.23,69l1.79-6.84L139,375.18l6.84,1.79c-19.54-38.46-27.07-82.24-12.77-123.71,8-23.32,22.51-45.76,41.59-61.62a38.82,38.82,0,0,1,7.46-4.9c10.44-5.21,21.78-8.6,33.15-11.08l-3.85-9.14c-1.83.85-3.64,1.72-5.42,2.66C200.28,172.18,205.33,180.82,211,177.82Z" transform="translate(-115.38 -136.49)"/>
  </g>
  <g id="toppings">
    <path id="lettuce" class="cls-1" d="M178,224c6-36-2-45-17-30s-18-1-29,7-17,45-6,40,12,9,6,18-6.19,41,5.41,29S160,269,175,278,178,224,178,224Z" transform="translate(-115.38 -136.49)"/>
    <path id="lettuce-2" data-name="lettuce" class="cls-1" d="M269.3,194.22c36.37,3.08,44.69-5.61,28.53-19.36s-.45-18-9.31-28.34-46.22-13.32-40.35-2.76-8,12.69-17.46,7.43-41.35-2.87-28.47,7.72,20.75,21,13,36.67S269.3,194.22,269.3,194.22Z" transform="translate(-115.38 -136.49)"/>
    <path id="tomato" class="cls-1" d="M216.89,179.89c-10.26-35-21.37-39.65-28.36-19.62s-16.64,6.93-23.07,18.92,4.27,47.91,12,38.63,14.72,2.88,13.23,13.6,12.26,39.6,17.48,23.76,12.08-26.93,29.5-25.35S216.89,179.89,216.89,179.89Z" transform="translate(-115.38 -136.49)"/>
    <path id="tomato-2" data-name="tomato" class="cls-1" d="M276.93,182.65c-24.77,26.8-23,38.71-2.26,34.41s14.5,10.72,28.08,10.07,38.91-28.29,27-30.14-5.09-14.11,4.86-18.34,27.67-30.87,11.39-27.2-29.31,3.48-36.91-12.28S276.93,182.65,276.93,182.65Z" transform="translate(-115.38 -136.49)"/>
  </g>
  <g id="front_shell">
    <path class="cls-1" d="M174.5,372.5l244-149c-99-99-195-54-208-47S115.5,257.5,174.5,372.5Z" transform="translate(-115.38 -136.49)"/>
    <path class="cls-1" d="M177,376.82l83-50.65,131-80,30-18.33a5.06,5.06,0,0,0,1-7.85c-30.93-30.72-69.2-55.17-112.77-62.35a170.27,170.27,0,0,0-80.9,6.06c-12.89,4.27-23.58,9.49-33.39,18.94a155.64,155.64,0,0,0-39.6,64.13C141.56,289.91,150,335.32,170.18,375c2.92,5.74,11.55.68,8.63-5-17.55-34.54-25.89-73.79-16.28-111.92A145.88,145.88,0,0,1,198,193.79c4.55-4.8,9.4-9.51,14-12.37a71.92,71.92,0,0,1,13.34-6.1,160.11,160.11,0,0,1,70.29-9.44c46.22,4.08,87,29,119.34,61.15l1-7.85-83,50.65-131,80-30,18.33C166.49,371.53,171.51,380.18,177,376.82Z" transform="translate(-115.38 -136.49)"/>
  </g>
  <path id="detail" class="cls-2" d="M202,325.51a99.54,99.54,0,0,1-2.62-11c-.19-1.06-.34-2.12-.51-3.17.7,4.19.07.48,0-.34q-.36-3.33-.55-6.68c-.23-4.22-.26-8.46-.11-12.68q.13-3.55.43-7.09.1-1.19.22-2.38c.07-.75.75-6,.18-2A152,152,0,0,1,205.37,253q1-2.88,2.07-5.72c.21-.53,1.77-4.3.32-.9q.71-1.66,1.47-3.31a117.43,117.43,0,0,1,6.46-12.1q1.69-2.76,3.55-5.41c.67-1,1.37-1.89,2.06-2.83-1.87,2.55-.65.83-.2.3a100.75,100.75,0,0,1,9.48-9.93c.85-.75,1.73-1.47,2.59-2.2,2.89-2.46-2.61,1.69.56-.4,1.57-1,3.1-2.13,4.72-3.1q2.91-1.75,6-3.22c.69-.33,1.38-.64,2.07-.94-3.68,1.61,1.05-.3,1.78-.54,11.92-4,21-4.82,33.88-3.91q2,.14,3.92.35c.58.06,3.89.53,1.45.16q4.6.7,9.15,1.74a151.87,151.87,0,0,1,16.81,4.9c10,3.54,19.43,8.06,30.49,14.14,8.42,4.63,16.59,9.69,25,14.41a15.28,15.28,0,0,0,20.52-5.38c4.05-6.93,1.7-16.54-5.38-20.52-18.76-10.56-36.88-21.61-57-29.49-25.69-10.05-54.24-13.93-81.24-6.94-42.68,11.06-67.43,53.09-74.81,94.11-4,22.13-4.45,45.53,2,67.26A15.29,15.29,0,0,0,191.49,344c7.71-2.12,12.8-10.66,10.48-18.45Z" transform="translate(-115.38 -136.49)"/>
</svg>
